<svg width="41" height="40" viewBox="0 0 41 40" fill="none" xmlns="http://www.w3.org/2000/svg">
<rect x="0.228027" width="40" height="40" rx="20" fill="#EBEEF6"/>
<path fill-rule="evenodd" clip-rule="evenodd" d="M26.685 27.097C27.654 26.1865 28.426 25.0869 28.9532 23.8662C29.4803 22.6455 29.7515 21.3297 29.75 20C29.75 14.615 25.385 10.25 20 10.25C14.615 10.25 10.25 14.615 10.25 20C10.2485 21.3297 10.5197 22.6455 11.0469 23.8662C11.574 25.0869 12.346 26.1865 13.315 27.097C15.1219 28.8039 17.5143 29.7533 20 29.75C22.4857 29.7533 24.8781 28.8039 26.685 27.097ZM14.145 25.812C14.8471 24.9336 15.738 24.2247 16.7516 23.7379C17.7653 23.2511 18.8755 22.9989 20 23C21.1245 22.9989 22.2347 23.2511 23.2484 23.7379C24.262 24.2247 25.1529 24.9336 25.855 25.812C25.089 26.5857 24.1771 27.1996 23.172 27.6181C22.1669 28.0366 21.0887 28.2514 20 28.25C18.9113 28.2514 17.8331 28.0366 16.828 27.6181C15.823 27.1996 14.911 26.5857 14.145 25.812ZM23.75 17C23.75 17.9946 23.3549 18.9484 22.6517 19.6517C21.9484 20.3549 20.9946 20.75 20 20.75C19.0054 20.75 18.0516 20.3549 17.3484 19.6517C16.6451 18.9484 16.25 17.9946 16.25 17C16.25 16.0054 16.6451 15.0516 17.3484 14.3483C18.0516 13.6451 19.0054 13.25 20 13.25C20.9946 13.25 21.9484 13.6451 22.6517 14.3483C23.3549 15.0516 23.75 16.0054 23.75 17Z" fill="#F7982A"/>
</svg>
