<svg width="13" height="16" viewBox="0 0 13 16" fill="none" xmlns="http://www.w3.org/2000/svg">
<g clip-path="url(#clip0_435_2286)">
<path fill-rule="evenodd" clip-rule="evenodd" d="M6.76322 14.8658C6.66947 14.9594 6.54239 15.012 6.40989 15.012C6.27739 15.012 6.15031 14.9594 6.05656 14.8658L1.05656 9.86581C0.968238 9.77102 0.920156 9.64566 0.922441 9.51612C0.924727 9.38659 0.977201 9.263 1.06881 9.17139C1.16042 9.07978 1.28401 9.02731 1.41354 9.02502C1.54308 9.02274 1.66844 9.07082 1.76322 9.15914L6.40989 13.8058L11.0566 9.15914C11.1023 9.11001 11.1575 9.07061 11.2189 9.04328C11.2802 9.01596 11.3464 9.00126 11.4135 9.00008C11.4807 8.99889 11.5474 9.01124 11.6096 9.03639C11.6719 9.06154 11.7284 9.09897 11.7759 9.14645C11.8234 9.19393 11.8608 9.25048 11.886 9.31274C11.9111 9.375 11.9235 9.44168 11.9223 9.50882C11.9211 9.57596 11.9064 9.64216 11.8791 9.7035C11.8518 9.76483 11.8124 9.82003 11.7632 9.86581L6.76322 14.8658Z" fill="#000A18"/>
</g>
<defs>
<clipPath id="clip0_435_2286">
<rect width="12" height="16" fill="white" transform="translate(0.407715)"/>
</clipPath>
</defs>
</svg>
