<svg width="13" height="13" viewBox="0 0 13 13" fill="none" xmlns="http://www.w3.org/2000/svg">
<path d="M6.67532 3.70508C8.39797 3.70508 9.81985 5.12695 9.81985 6.84961C9.81985 8.59961 8.39797 9.99414 6.67532 9.99414C4.92532 9.99414 3.53079 8.59961 3.53079 6.84961C3.53079 5.12695 4.92532 3.70508 6.67532 3.70508ZM6.67532 8.90039C7.79641 8.90039 8.69875 7.99805 8.69875 6.84961C8.69875 5.72852 7.79641 4.82617 6.67532 4.82617C5.52688 4.82617 4.62454 5.72852 4.62454 6.84961C4.62454 7.99805 5.55422 8.90039 6.67532 8.90039ZM10.6675 3.5957C10.6675 4.00586 10.3394 4.33398 9.92922 4.33398C9.51907 4.33398 9.19094 4.00586 9.19094 3.5957C9.19094 3.18555 9.51907 2.85742 9.92922 2.85742C10.3394 2.85742 10.6675 3.18555 10.6675 3.5957ZM12.7456 4.33398C12.8003 5.3457 12.8003 8.38086 12.7456 9.39258C12.6909 10.377 12.4722 11.2246 11.7613 11.9629C11.0503 12.6738 10.1753 12.8926 9.19094 12.9473C8.17922 13.002 5.14407 13.002 4.13235 12.9473C3.14797 12.8926 2.30032 12.6738 1.56204 11.9629C0.851099 11.2246 0.632349 10.377 0.577661 9.39258C0.522974 8.38086 0.522974 5.3457 0.577661 4.33398C0.632349 3.34961 0.851099 2.47461 1.56204 1.76367C2.30032 1.05273 3.14797 0.833984 4.13235 0.779297C5.14407 0.724609 8.17922 0.724609 9.19094 0.779297C10.1753 0.833984 11.0503 1.05273 11.7613 1.76367C12.4722 2.47461 12.6909 3.34961 12.7456 4.33398ZM11.4331 10.459C11.7613 9.66602 11.6792 7.75195 11.6792 6.84961C11.6792 5.97461 11.7613 4.06055 11.4331 3.24023C11.2144 2.7207 10.8042 2.2832 10.2847 2.0918C9.46438 1.76367 7.55032 1.8457 6.67532 1.8457C5.77297 1.8457 3.85891 1.76367 3.06594 2.0918C2.51907 2.31055 2.10891 2.7207 1.89016 3.24023C1.56204 4.06055 1.64407 5.97461 1.64407 6.84961C1.64407 7.75195 1.56204 9.66602 1.89016 10.459C2.10891 11.0059 2.51907 11.416 3.06594 11.6348C3.85891 11.9629 5.77297 11.8809 6.67532 11.8809C7.55032 11.8809 9.46438 11.9629 10.2847 11.6348C10.8042 11.416 11.2417 11.0059 11.4331 10.459Z" fill="black"/>
</svg>
