<svg width="12" height="12" viewBox="0 0 12 12" fill="none" xmlns="http://www.w3.org/2000/svg">
<g clip-path="url(#clip0_433_2109)">
<path fill-rule="evenodd" clip-rule="evenodd" d="M0.75 2.25C0.75 1.85218 0.908035 1.47064 1.18934 1.18934C1.47064 0.908035 1.85218 0.75 2.25 0.75H2.936C3.366 0.75 3.741 1.043 3.8455 1.46L4.398 3.6715C4.44277 3.8505 4.43373 4.03873 4.372 4.21261C4.31028 4.38649 4.19861 4.5383 4.051 4.649L3.4045 5.134C3.337 5.1845 3.3225 5.2585 3.3415 5.31C3.62369 6.07743 4.0693 6.77435 4.64747 7.35253C5.22565 7.9307 5.92257 8.37631 6.69 8.6585C6.7415 8.6775 6.815 8.663 6.866 8.5955L7.351 7.949C7.4617 7.80139 7.61351 7.68972 7.78739 7.628C7.96127 7.56627 8.1495 7.55723 8.3285 7.602L10.54 8.1545C10.957 8.259 11.25 8.634 11.25 9.0645V9.75C11.25 10.1478 11.092 10.5294 10.8107 10.8107C10.5294 11.092 10.1478 11.25 9.75 11.25H8.625C4.276 11.25 0.75 7.724 0.75 3.375V2.25Z" fill="#000A18"/>
</g>
<defs>
<clipPath id="clip0_433_2109">
<rect width="12" height="12" fill="white"/>
</clipPath>
</defs>
</svg>
