<svg width="15" height="12" viewBox="0 0 15 12" fill="none" xmlns="http://www.w3.org/2000/svg">
<path d="M13.232 3.00586C13.232 3.14258 13.232 3.25195 13.232 3.38867C13.232 7.18945 10.3609 11.5371 5.08359 11.5371C3.44297 11.5371 1.93906 11.0723 0.68125 10.252C0.9 10.2793 1.11875 10.3066 1.36484 10.3066C2.70469 10.3066 3.93516 9.8418 4.91953 9.07617C3.66172 9.04883 2.59531 8.22852 2.23984 7.08008C2.43125 7.10742 2.59531 7.13477 2.78672 7.13477C3.03281 7.13477 3.30625 7.08008 3.525 7.02539C2.2125 6.75195 1.22813 5.60352 1.22813 4.20898V4.18164C1.61094 4.40039 2.07578 4.50977 2.54063 4.53711C1.74766 4.01758 1.25547 3.14258 1.25547 2.1582C1.25547 1.61133 1.39219 1.11914 1.63828 0.708984C3.06016 2.43164 5.19297 3.58008 7.57188 3.7168C7.51719 3.49805 7.48984 3.2793 7.48984 3.06055C7.48984 1.47461 8.775 0.189453 10.3609 0.189453C11.1813 0.189453 11.9195 0.517578 12.4664 1.0918C13.0953 0.955078 13.7242 0.708984 14.2711 0.380859C14.0523 1.06445 13.6148 1.61133 13.0133 1.9668C13.5875 1.91211 14.1617 1.74805 14.6539 1.5293C14.2711 2.10352 13.7789 2.5957 13.232 3.00586Z" fill="black"/>
</svg>
