<svg width="16" height="12" viewBox="0 0 16 12" fill="none" xmlns="http://www.w3.org/2000/svg">
<path d="M14.8339 2.26758C15.162 3.41602 15.162 5.87695 15.162 5.87695C15.162 5.87695 15.162 8.31055 14.8339 9.48633C14.6698 10.1426 14.1503 10.6348 13.5214 10.7988C12.3456 11.0996 7.69719 11.0996 7.69719 11.0996C7.69719 11.0996 3.02141 11.0996 1.84563 10.7988C1.21672 10.6348 0.697192 10.1426 0.53313 9.48633C0.205005 8.31055 0.205005 5.87695 0.205005 5.87695C0.205005 5.87695 0.205005 3.41602 0.53313 2.26758C0.697192 1.61133 1.21672 1.0918 1.84563 0.927734C3.02141 0.599609 7.69719 0.599609 7.69719 0.599609C7.69719 0.599609 12.3456 0.599609 13.5214 0.927734C14.1503 1.0918 14.6698 1.61133 14.8339 2.26758ZM6.16594 8.0918L10.0488 5.87695L6.16594 3.66211V8.0918Z" fill="black"/>
</svg>
