<svg width="13" height="13" viewBox="0 0 13 13" fill="none" xmlns="http://www.w3.org/2000/svg">
<path d="M11.6912 5.4375C11.9281 5.4375 12.1287 5.52865 12.2927 5.71094C12.475 5.875 12.5662 6.07552 12.5662 6.3125V7.1875C12.5662 7.42448 12.475 7.63411 12.2927 7.81641C12.1287 7.98047 11.9281 8.0625 11.6912 8.0625H7.75366V12C7.75366 12.237 7.66252 12.4375 7.48022 12.6016C7.31616 12.7839 7.11564 12.875 6.87866 12.875H6.00366C5.76668 12.875 5.55705 12.7839 5.37476 12.6016C5.21069 12.4375 5.12866 12.237 5.12866 12V8.0625H1.19116C0.954183 8.0625 0.744548 7.98047 0.562256 7.81641C0.398193 7.63411 0.316162 7.42448 0.316162 7.1875V6.3125C0.316162 6.07552 0.398193 5.875 0.562256 5.71094C0.744548 5.52865 0.954183 5.4375 1.19116 5.4375H5.12866V1.5C5.12866 1.26302 5.21069 1.0625 5.37476 0.898438C5.55705 0.716146 5.76668 0.625 6.00366 0.625H6.87866C7.11564 0.625 7.31616 0.716146 7.48022 0.898438C7.66252 1.0625 7.75366 1.26302 7.75366 1.5V5.4375H11.6912Z" fill="#000A18"/>
</svg>
