<svg width="12" height="13" viewBox="0 0 12 13" fill="none" xmlns="http://www.w3.org/2000/svg">
<path d="M10.1016 2.59839C11.2422 3.72339 11.8125 5.09058 11.8125 6.69995C11.8125 8.30933 11.2422 9.68433 10.1016 10.825C8.97656 11.95 7.60938 12.5125 6 12.5125C4.39062 12.5125 3.01562 11.95 1.875 10.825C0.75 9.68433 0.1875 8.30933 0.1875 6.69995C0.1875 5.09058 0.75 3.72339 1.875 2.59839C3.01562 1.45776 4.39062 0.887451 6 0.887451C7.60938 0.887451 8.97656 1.45776 10.1016 2.59839ZM5.32031 9.77026L9.63281 5.45776C9.82031 5.28589 9.82031 5.11401 9.63281 4.94214L9.11719 4.40308C8.92969 4.2312 8.75 4.2312 8.57812 4.40308L5.0625 7.9187L3.42188 6.27808C3.25 6.1062 3.07031 6.1062 2.88281 6.27808L2.36719 6.81714C2.17969 6.98901 2.17969 7.16089 2.36719 7.33276L4.80469 9.77026C4.97656 9.95776 5.14844 9.95776 5.32031 9.77026Z" fill="#1ABA1A"/>
</svg>
