<svg width="12" height="12" viewBox="0 0 12 12" fill="none" xmlns="http://www.w3.org/2000/svg">
<path d="M1.875 1.89844C3.01562 0.757812 4.39062 0.1875 6 0.1875C7.60938 0.1875 8.97656 0.757812 10.1016 1.89844C11.2422 3.02344 11.8125 4.39062 11.8125 6C11.8125 7.60938 11.2422 8.98438 10.1016 10.125C8.97656 11.25 7.60938 11.8125 6 11.8125C4.39062 11.8125 3.01562 11.25 1.875 10.125C0.75 8.98438 0.1875 7.60938 0.1875 6C0.1875 4.39062 0.75 3.02344 1.875 1.89844ZM8.85938 7.52344L7.3125 6L8.85938 4.47656C8.98438 4.33594 8.98438 4.20312 8.85938 4.07812L7.92188 3.14062C7.79688 3.01563 7.66406 3.01563 7.52344 3.14062L6 4.6875L4.47656 3.14062C4.33594 3.01563 4.20312 3.01563 4.07812 3.14062L3.14062 4.07812C3.01562 4.20312 3.01562 4.33594 3.14062 4.47656L4.6875 6L3.14062 7.52344C3.01562 7.66406 3.01562 7.79688 3.14062 7.92188L4.07812 8.85938C4.20312 8.98438 4.33594 8.98438 4.47656 8.85938L6 7.3125L7.52344 8.85938C7.66406 8.98438 7.79688 8.98438 7.92188 8.85938L8.85938 7.92188C8.98438 7.79688 8.98438 7.66406 8.85938 7.52344Z" fill="#F1352B"/>
</svg>
